0
SECTION
2
HEADER
9
$INSUNITS
70
4
9
$ACADVER
1
AC1014
9
$HANDSEED
5
FFFF
0
ENDSEC
0
SECTION
2
TABLES
0
TABLE
2
VPORT
5
8
100
AcDbSymbolTable
0
ENDTAB
0
TABLE
2
LTYPE
5
5
100
AcDbSymbolTable
0
LTYPE
5
14
100
AcDbSymbolTableRecord
100
AcDbLinetypeTableRecord
2
BYBLOCK
70
0
0
LTYPE
5
15
100
AcDbSymbolTableRecord
100
AcDbLinetypeTableRecord
2
BYLAYER
70
0
0
ENDTAB
0
TABLE
2
LAYER
5
2
100
AcDbSymbolTable
70
2
0
LAYER
5
50
100
AcDbSymbolTableRecord
100
AcDbLayerTableRecord
2
0
70
0
6
CONTINUOUS
0
ENDTAB
0
TABLE
2
STYLE
5
3
100
AcDbSymbolTable
70
1
0
STYLE
5
11
100
AcDbSymbolTableRecord
100
AcDbTextStyleTableRecord
2
STANDARD
70
0
0
ENDTAB
0
TABLE
2
VIEW
5
6
100
AcDbSymbolTable
70
0
0
ENDTAB
0
TABLE
2
UCS
5
7
100
AcDbSymbolTable
70
0
0
ENDTAB
0
TABLE
2
APPID
5
9
100
AcDbSymbolTable
70
2
0
APPID
5
12
100
AcDbSymbolTableRecord
100
AcDbRegAppTableRecord
2
ACAD
70
0
0
ENDTAB
0
TABLE
2
DIMSTYLE
5
A
100
AcDbSymbolTable
70
1
0
ENDTAB
0
TABLE
2
BLOCK_RECORD
5
1
100
AcDbSymbolTable
70
1
0
BLOCK_RECORD
5
1F
100
AcDbSymbolTableRecord
100
AcDbBlockTableRecord
2
*MODEL_SPACE
0
BLOCK_RECORD
5
1B
100
AcDbSymbolTableRecord
100
AcDbBlockTableRecord
2
*PAPER_SPACE
0
ENDTAB
0
ENDSEC
0
SECTION
2
BLOCKS
0
BLOCK
5
20
100
AcDbEntity
100
AcDbBlockBegin
2
*MODEL_SPACE
0
ENDBLK
5
21
100
AcDbEntity
100
AcDbBlockEnd
0
BLOCK
5
1C
100
AcDbEntity
100
AcDbBlockBegin
2
*PAPER_SPACE
0
ENDBLK
5
1D
100
AcDbEntity
100
AcDbBlockEnd
0
ENDSEC
0
SECTION
2
ENTITIES
0
CIRCLE
5
100
100
AcDbEntity
8
0
100
AcDbCircle
10
-172.5
20
202.36860279185584
30
0
40
3.75
210
0
220
-0
230
1
0
CIRCLE
5
101
100
AcDbEntity
8
0
100
AcDbCircle
10
-200
20
250
30
0
40
19.149999999999991
210
0
220
-0
230
1
0
CIRCLE
5
102
100
AcDbEntity
8
0
100
AcDbCircle
10
-172.49999999999997
20
297.63139720814411
30
0
40
3.7500000000000351
210
0
220
-0
230
1
0
CIRCLE
5
103
100
AcDbEntity
8
0
100
AcDbCircle
10
-255
20
250
30
0
40
3.75
210
0
220
-0
230
1
0
CIRCLE
5
104
100
AcDbEntity
8
0
100
AcDbCircle
10
-200
20
250
30
0
40
19.149999999999991
210
0
220
0
230
1
0
CIRCLE
5
105
100
AcDbEntity
8
0
100
AcDbCircle
10
-255
20
250
30
0
40
3.75
210
0
220
0
230
1
0
CIRCLE
5
106
100
AcDbEntity
8
0
100
AcDbCircle
10
-172.49999999999997
20
297.63139720814411
30
0
40
3.7500000000000355
210
0
220
0
230
1
0
CIRCLE
5
107
100
AcDbEntity
8
0
100
AcDbCircle
10
-172.5
20
202.36860279185584
30
0
40
3.75
210
0
220
0
230
1
0
LWPOLYLINE
5
108
100
AcDbEntity
8
0
100
AcDbPolyline
90
24
70
1
43
0.0
10
-140.36788247174317
20
168.9585652693614
10
-159.63211752825669
20
157.83635397375107
42
-0.54561030539065336
10
-204.49246099380471
20
180.92576897572678
10
-206.42146246156753
20
200.84750239289411
42
0.24224578653781109
10
-213.8516341943415
20
212.39220989388201
10
-225.64348451492052
20
219.20023785071206
42
0.24224578653781179
10
-239.35658035642371
20
219.86260157528142
10
-257.57380831699373
20
211.57229914171779
42
-0.54561030539065791
10
-299.99999999999994
20
238.87778870438962
10
-299.99999999999994
20
261.12221129561016
42
-0.54561030539065214
10
-257.57380831699345
20
288.42770085828215
10
-239.35658035642388
20
280.13739842471858
42
0.24224578653782272
10
-225.64348451492066
20
280.79976214928786
10
-213.85163419434144
20
287.60779010611805
42
0.24224578653781845
10
-206.42146246156753
20
299.15249760710589
10
-204.49246099380468
20
319.07423102427344
42
-0.54561030539065691
10
-159.63211752825686
20
342.16364602624901
10
-140.36788247174331
20
331.04143473063868
42
-0.54561030539065192
10
-137.93373068920192
20
280.64653016599101
10
-154.22195718200874
20
269.01509918238736
42
0.24224578653781551
10
-160.50488129073801
20
256.80802795683013
10
-160.50488129073801
20
243.1919720431699
42
0.24224578653780693
10
-154.22195718200871
20
230.98490081761267
10
-137.93373068920178
20
219.35346983400888
42
-0.54561030539065636
0
ENDSEC
0
SECTION
2
OBJECTS
0
DICTIONARY
5
C
100
AcDbDictionary
3
ACAD_GROUP
350
D
3
ACAD_MLINESTYLE
350
17
0
DICTIONARY
5
D
100
AcDbDictionary
0
DICTIONARY
5
1A
330
C
100
AcDbDictionary
0
DICTIONARY
5
17
100
AcDbDictionary
0
ENDSEC
0
EOF
